<?xml version="1.0" standalone="no"?>
<!DOCTYPE svg PUBLIC "-//W3C//DTD SVG 20010904//EN"
 "http://www.w3.org/TR/2001/REC-SVG-20010904/DTD/svg10.dtd">
<svg version="1.0" xmlns="http://www.w3.org/2000/svg"
 width="1280.000000pt" height="1060.000000pt" viewBox="0 0 1280.000000 1060.000000"
 preserveAspectRatio="xMidYMid meet">
<g transform="translate(0.000000,1060.000000) scale(0.100000,-0.100000)"
fill="#000000" stroke="none">
<path d="M10290 10465 c-183 -23 -267 -44 -540 -137 -96 -32 -249 -79 -340
-103 -210 -55 -454 -132 -745 -233 -365 -127 -608 -182 -797 -183 -115 0 -168
8 -280 44 -148 47 -234 155 -147 182 35 12 8 27 -35 20 -51 -8 -126 -33 -143
-47 -7 -5 -29 -39 -49 -76 -69 -123 -91 -148 -224 -247 -74 -55 -188 -156
-338 -298 -57 -54 -161 -148 -230 -210 -69 -62 -166 -157 -214 -212 -85 -96
-134 -135 -169 -135 -10 0 -42 24 -73 53 l-56 53 6 77 7 76 -32 28 c-41 36
-39 64 6 114 35 39 36 41 13 34 -67 -21 -138 -86 -166 -153 -17 -42 -15 -51
32 -122 19 -29 46 -79 58 -111 13 -31 44 -86 69 -123 25 -36 51 -83 58 -103
12 -38 8 -117 -11 -194 -6 -24 -31 -125 -56 -224 -63 -253 -87 -363 -129 -586
-43 -231 -73 -353 -119 -486 -19 -54 -37 -109 -40 -123 -3 -14 -17 -33 -31
-43 -24 -17 -24 -17 -48 25 -14 24 -32 66 -41 93 -20 63 -60 111 -139 172 -34
25 -77 60 -96 77 -34 32 -129 172 -241 356 -168 277 -349 531 -482 675 -122
134 -206 252 -247 351 -20 45 -27 52 -69 67 -26 8 -92 32 -148 51 -56 20 -197
59 -315 86 -298 70 -394 109 -521 215 -68 56 -192 202 -247 290 l-32 50 -162
27 c-118 20 -225 30 -392 37 -386 16 -487 49 -812 259 -159 103 -337 201 -347
191 -16 -15 94 -252 164 -354 61 -89 106 -201 96 -239 -12 -46 -111 -62 -179
-27 -119 61 -106 16 18 -60 47 -29 125 -86 174 -128 48 -42 201 -161 340 -266
252 -189 253 -190 248 -222 -8 -47 17 -124 50 -155 16 -14 53 -38 83 -53 30
-15 91 -49 135 -75 44 -26 118 -69 165 -96 72 -41 127 -89 363 -319 284 -275
353 -350 492 -535 44 -58 115 -150 159 -205 127 -160 426 -620 426 -656 0 -9
-13 -40 -29 -70 -40 -74 -69 -147 -101 -253 l-26 -90 -47 -19 c-71 -29 -77
-23 -77 80 l-1 88 -29 -34 c-16 -18 -39 -63 -52 -100 -21 -62 -25 -66 -53 -66
-29 0 -31 4 -57 80 -15 44 -30 80 -35 80 -13 0 -31 -85 -32 -152 -1 -50 -5
-64 -20 -72 -13 -7 -23 -6 -36 3 -16 11 -17 23 -12 80 3 36 2 66 -2 66 -13 0
-62 -60 -93 -113 -47 -80 -83 -61 -101 53 -6 38 -15 70 -20 70 -13 0 -45 -80
-52 -131 -10 -65 -16 -73 -59 -65 -41 8 -45 12 -48 55 -4 49 -16 48 -39 -3
-14 -32 -26 -46 -39 -46 -40 0 -14 49 70 128 38 37 41 42 20 37 -14 -4 -59
-27 -101 -51 -77 -45 -119 -55 -119 -30 0 8 12 24 26 35 26 20 26 21 5 21 -12
0 -40 -9 -62 -21 -38 -19 -42 -19 -65 -4 -29 19 -29 21 -4 63 19 31 19 32 2
23 -10 -5 -24 -17 -32 -25 -15 -19 -30 -20 -65 -4 -33 15 -32 31 6 62 27 23
28 26 10 26 -11 0 -40 -10 -65 -21 -43 -21 -44 -22 -69 -3 -35 26 -40 40 -22
75 18 33 7 38 -20 9 -23 -25 -57 -26 -80 0 -20 23 -15 68 16 139 11 24 18 46
16 48 -9 8 -59 -42 -77 -76 -29 -59 -45 -67 -85 -48 -30 14 -34 21 -40 71 -8
59 0 139 17 170 8 14 7 17 -4 14 -22 -7 -57 -88 -64 -150 -4 -32 -10 -61 -14
-63 -4 -3 -29 5 -55 16 -50 22 -66 47 -91 144 l-13 50 2 -70 c1 -38 -2 -75 -5
-81 -5 -7 -25 -8 -67 -1 -58 9 -61 11 -71 46 -5 20 -10 56 -10 81 -1 41 -2 43
-15 26 -7 -10 -17 -43 -21 -72 -3 -30 -10 -57 -15 -60 -15 -9 -87 16 -93 32
-3 9 -3 27 0 41 10 37 -13 21 -31 -23 -27 -65 -92 -32 -70 36 13 41 -19 16
-43 -33 -22 -46 -24 -47 -68 -47 -34 0 -46 4 -50 18 -18 56 -22 58 -29 14 -9
-50 -20 -57 -99 -66 l-59 -6 6 147 c6 162 18 215 73 325 43 86 56 162 39 243
-20 92 -38 128 -93 182 -36 35 -56 65 -72 110 -12 35 -27 60 -32 57 -13 -8 -2
-164 12 -178 5 -5 10 -20 10 -32 0 -13 5 -26 11 -30 6 -3 8 -17 5 -30 -3 -12
-1 -34 5 -48 10 -22 8 -31 -14 -64 -15 -21 -27 -48 -27 -59 0 -13 -16 -34 -40
-53 -30 -24 -40 -39 -40 -60 0 -20 -9 -36 -32 -54 -26 -20 -32 -31 -30 -57 2
-23 -5 -40 -24 -60 -18 -19 -24 -33 -20 -47 5 -13 -2 -30 -19 -50 -22 -26 -24
-35 -15 -53 10 -18 8 -25 -16 -50 -24 -25 -26 -32 -16 -54 11 -23 9 -30 -19
-65 -22 -27 -30 -46 -26 -60 8 -31 -11 -76 -39 -95 -14 -9 -29 -27 -34 -41
-13 -33 -28 -30 -44 7 -17 40 -26 19 -26 -60 0 -151 -25 -191 -61 -99 -10 26
-39 83 -64 127 -26 43 -54 110 -64 147 -41 157 -162 328 -271 384 -45 23 -48
20 -21 -18 10 -15 29 -49 41 -77 12 -27 31 -68 41 -90 19 -42 23 -90 13 -165
-3 -25 -6 -65 -7 -90 -1 -25 -5 -50 -9 -56 -4 -6 -1 -19 6 -30 10 -13 11 -25
5 -43 -7 -17 -6 -28 5 -40 9 -10 13 -26 9 -39 -3 -14 1 -30 12 -42 12 -13 15
-27 11 -44 -3 -14 -1 -34 6 -45 9 -15 9 -28 0 -60 -7 -22 -10 -51 -6 -65 4
-16 -2 -38 -18 -66 -15 -27 -19 -44 -12 -47 6 -2 19 -10 29 -17 18 -13 18 -15
1 -67 -18 -53 -18 -54 3 -68 28 -18 27 -29 -14 -97 -19 -32 -35 -62 -35 -67 0
-5 11 -22 25 -39 27 -32 31 -67 14 -116 -10 -30 -6 -69 17 -149 4 -16 2 -23
-8 -23 -25 0 -50 37 -79 117 l-28 78 0 -83 c-1 -126 28 -189 152 -324 20 -23
37 -48 37 -56 0 -8 15 -32 34 -53 40 -44 54 -105 37 -165 -6 -21 -11 -63 -11
-91 l0 -53 40 0 c35 0 43 -5 60 -32 11 -18 27 -54 36 -80 14 -43 19 -48 64
-63 27 -9 54 -13 60 -10 16 10 40 -14 40 -41 0 -12 21 -51 48 -86 81 -107 127
-246 87 -262 -10 -3 -28 0 -41 9 -13 9 -24 12 -24 7 0 -20 40 -122 74 -191 26
-50 34 -77 27 -84 -13 -13 -56 14 -98 62 -17 20 -34 33 -38 30 -9 -10 63 -186
100 -244 18 -27 63 -82 101 -120 80 -82 193 -146 344 -195 146 -47 161 -41 77
32 -29 25 -64 66 -77 91 l-24 46 18 63 c15 56 22 86 25 111 1 4 10 7 20 7 14
0 27 -16 46 -55 28 -60 27 -60 57 -44 23 13 118 -18 180 -59 65 -42 136 -149
174 -262 23 -71 31 -39 9 37 -24 82 -69 169 -121 231 -24 30 -44 61 -44 69 0
7 -9 32 -21 54 -24 48 -17 62 39 79 20 6 47 16 59 22 48 23 226 -38 321 -110
36 -27 41 -29 31 -11 -32 61 -163 161 -258 199 -89 35 -145 83 -179 153 -26
55 -31 82 -41 203 -14 164 -4 277 35 416 41 144 95 241 206 371 62 74 148 201
148 221 0 4 -30 -18 -66 -49 -81 -69 -113 -90 -121 -81 -9 9 18 63 59 116 19
25 37 61 40 80 6 36 93 190 108 190 18 0 83 -86 121 -162 23 -46 63 -117 89
-158 26 -41 69 -113 96 -159 40 -68 71 -104 169 -195 141 -130 327 -258 440
-305 72 -30 90 -44 180 -135 55 -55 118 -117 140 -136 29 -26 60 -74 112 -177
83 -165 168 -277 237 -314 25 -13 45 -28 43 -33 -2 -5 -24 -17 -50 -27 -59
-23 -197 -109 -262 -164 -27 -23 -84 -66 -125 -95 -41 -30 -118 -92 -170 -138
-131 -117 -382 -280 -500 -325 -36 -14 -81 -33 -101 -44 -57 -29 -318 -223
-389 -288 -69 -65 -134 -99 -215 -115 -71 -14 -212 -38 -268 -45 -36 -5 -58
-15 -83 -38 -30 -28 -36 -41 -45 -107 -19 -138 -22 -189 -10 -218 8 -18 8 -42
2 -74 -18 -101 28 -188 100 -188 l30 0 -35 34 c-28 26 -36 41 -36 67 0 38 23
79 45 79 20 0 62 55 70 90 5 21 2 39 -9 55 -24 36 -20 53 14 60 24 5 37 1 61
-19 44 -37 95 -35 154 6 75 53 75 29 -2 -122 l-68 -133 3 -105 c4 -112 11
-137 40 -146 10 -4 29 -30 43 -59 32 -70 77 -77 110 -15 9 16 7 18 -15 12 -24
-6 -26 -3 -26 24 0 17 5 34 10 37 9 6 50 78 50 88 0 2 -13 21 -30 41 -35 46
-34 61 21 195 84 203 124 232 148 104 12 -62 -6 -158 -44 -234 -40 -77 -64
-173 -55 -213 7 -33 57 -106 72 -106 4 0 14 15 22 34 8 19 21 38 29 42 21 13
48 70 41 88 -13 35 45 240 94 333 22 41 113 158 196 251 36 41 91 120 122 175
31 56 63 112 70 123 14 23 145 69 170 60 8 -3 14 -20 14 -40 0 -39 -39 -178
-70 -250 -11 -27 -19 -51 -16 -53 19 -19 115 106 162 213 68 154 73 162 110
174 31 10 39 10 53 -4 24 -25 20 -248 -8 -380 -34 -159 -25 -174 39 -75 52 81
74 141 126 347 24 95 46 178 50 184 4 5 22 17 42 25 30 12 37 12 49 1 21 -21
36 -133 29 -225 -3 -46 -1 -83 3 -83 24 0 71 196 71 296 0 49 10 59 76 79 71
21 80 20 89 -17 l7 -33 12 39 c7 22 19 43 27 48 28 16 171 58 179 53 4 -3 13
2 20 10 9 11 33 15 85 15 81 0 176 25 223 59 17 11 41 21 54 21 12 1 34 7 48
15 14 8 28 14 32 15 4 0 21 -26 38 -58 30 -57 221 -264 289 -313 l33 -25 -71
-161 c-46 -104 -88 -220 -117 -325 -82 -292 -156 -511 -205 -611 -27 -55 -49
-105 -49 -113 0 -7 -23 -50 -51 -94 -76 -119 -108 -206 -129 -345 -9 -66 -15
-125 -13 -132 18 -48 -110 -192 -212 -238 -27 -12 -59 -32 -69 -44 -23 -25
-66 -27 -127 -5 -30 10 -61 14 -96 10 -31 -4 -73 0 -106 8 -78 20 -142 6 -210
-47 -35 -27 -74 -83 -64 -93 2 -3 28 11 57 31 37 25 63 35 90 35 86 0 92 -25
16 -62 -49 -24 -116 -91 -104 -103 3 -3 17 4 31 15 36 28 91 50 126 50 23 0
31 -6 39 -29 18 -50 63 -68 204 -80 69 -7 139 -9 154 -5 26 7 27 6 20 -29 -8
-45 12 -67 62 -67 30 1 34 3 19 11 -22 13 -22 36 1 48 9 5 44 9 77 10 41 0 66
6 81 18 56 45 140 110 153 117 7 5 48 12 91 17 43 4 87 13 99 20 22 15 61 95
61 128 0 32 21 36 45 9 30 -35 55 -47 87 -41 22 4 30 0 47 -28 30 -49 28 -110
-5 -149 -30 -35 -28 -45 9 -31 89 34 107 179 34 285 -22 32 -34 151 -16 162 6
3 20 -3 32 -14 12 -12 39 -28 59 -36 l37 -16 -6 -50 c-7 -57 5 -65 27 -17 10
21 27 36 53 46 41 15 53 12 116 -34 37 -27 97 -33 123 -13 9 7 23 29 33 50 15
32 37 47 71 48 7 0 29 -22 50 -50 21 -27 41 -50 45 -50 4 0 12 14 19 30 7 17
20 36 30 43 27 19 49 70 43 100 -8 39 22 100 60 122 18 10 79 65 136 122 60
59 111 103 120 101 22 -4 86 -136 101 -209 7 -32 17 -59 21 -59 29 0 31 146 5
278 l-19 93 23 24 c13 14 31 25 41 25 43 0 139 -119 213 -263 54 -106 66 -109
66 -19 0 82 -23 163 -85 300 -43 95 -44 97 -25 117 10 11 33 28 50 38 l31 19
42 -44 c23 -23 57 -61 75 -83 l33 -40 -5 35 c-3 19 -22 66 -41 103 -19 37 -35
74 -35 81 0 8 16 26 35 40 59 45 67 131 19 201 -23 32 -17 49 51 152 36 54 61
99 56 101 -15 5 -83 -33 -130 -72 -60 -51 -68 -48 -76 29 l-7 66 46 69 c25 38
46 72 46 75 0 11 -31 4 -65 -16 -42 -25 -53 -19 -61 33 -5 29 0 45 31 91 20
30 43 58 50 61 23 9 99 -49 152 -115 117 -147 249 -252 376 -300 49 -18 92
-41 97 -50 16 -28 60 -264 60 -316 0 -100 -19 -163 -79 -263 -121 -200 -161
-272 -187 -332 -14 -35 -41 -79 -59 -98 -18 -19 -44 -53 -58 -74 -28 -42 -197
-174 -231 -180 -19 -4 -88 -15 -201 -32 -22 -3 -59 -16 -82 -30 -23 -13 -57
-24 -77 -24 -19 0 -37 -4 -40 -8 -2 -4 -34 -23 -71 -41 -51 -26 -70 -42 -85
-72 -23 -44 -25 -113 -5 -149 14 -25 14 -25 21 18 8 54 43 97 90 112 48 16 61
3 39 -40 -24 -47 -14 -54 27 -19 l38 30 42 -30 c24 -17 58 -34 76 -37 17 -4
32 -9 32 -12 0 -3 -9 -25 -21 -49 -21 -43 -23 -84 -4 -84 6 0 11 9 13 20 4 23
44 55 80 64 26 6 82 -10 82 -24 0 -18 65 -49 102 -49 29 0 47 9 83 40 25 22
53 40 61 40 9 0 30 11 48 25 34 26 62 30 129 19 55 -10 65 -35 33 -85 -44 -66
-29 -109 40 -109 27 0 27 0 8 21 -18 20 -18 21 1 35 10 8 42 14 72 14 56 0 66
6 115 68 10 12 26 22 36 22 11 0 48 29 84 64 63 62 66 67 83 143 22 99 73 249
91 264 16 13 105 -28 149 -72 17 -16 35 -29 39 -29 5 0 6 20 4 45 -4 30 -17
59 -42 92 -93 123 -91 120 -73 158 15 32 20 35 60 35 55 0 146 -31 207 -70 56
-36 60 -37 60 -7 0 40 -57 112 -140 178 -44 34 -83 71 -86 82 -4 12 2 30 14
46 26 34 69 33 145 -2 31 -14 57 -23 57 -19 -1 15 -37 51 -93 91 -52 38 -57
44 -50 69 10 35 10 129 0 165 -4 17 -4 27 3 27 6 0 54 -32 108 -72 92 -68 181
-123 317 -192 33 -17 93 -51 133 -74 76 -45 106 -60 382 -186 267 -121 561
-202 915 -251 105 -15 251 -35 325 -46 209 -29 333 -37 625 -37 149 -1 315 -4
370 -8 182 -11 517 25 792 86 453 101 489 112 608 182 39 23 113 66 165 96 72
42 118 80 192 154 91 93 98 104 124 180 34 103 29 157 -30 304 -67 166 -189
305 -331 376 -32 16 -242 65 -310 72 -96 11 -212 20 -240 19 -28 -1 -312 60
-345 74 -8 3 -19 5 -24 4 -4 -1 -13 3 -20 8 -6 5 -28 12 -48 16 -21 4 -38 11
-38 17 0 5 -5 6 -10 3 -6 -4 -17 -2 -24 4 -8 7 -18 11 -22 10 -11 -3 -34 6
-104 39 -30 15 -59 27 -65 27 -5 1 -23 7 -40 15 -16 7 -36 12 -42 11 -7 -1
-13 3 -13 9 0 5 -9 10 -19 10 -11 0 -23 5 -26 10 -3 6 -15 10 -26 10 -10 0
-19 4 -19 9 0 7 -19 16 -50 25 -28 7 -100 42 -100 48 0 4 -6 8 -14 8 -8 0 -38
13 -67 29 -30 15 -74 39 -99 52 -25 13 -46 27 -48 32 -2 4 -8 7 -13 7 -18 0
-97 73 -169 155 -64 73 -145 231 -171 334 -26 98 -48 309 -51 486 -2 133 -1
147 35 290 31 121 48 166 87 235 98 170 227 267 451 339 19 6 63 11 96 11 102
0 349 55 512 114 46 17 147 72 155 85 3 4 -57 -4 -132 -16 -75 -13 -146 -22
-156 -21 -29 4 -30 24 -2 49 13 12 30 34 36 49 18 43 77 78 212 126 161 58
173 70 78 81 -64 7 -72 24 -33 66 16 18 37 44 46 59 10 15 36 37 60 49 23 12
62 36 87 53 l45 31 -44 5 c-71 8 -71 16 -23 212 65 266 84 378 63 378 -5 0
-42 -59 -81 -132 -153 -279 -287 -454 -442 -574 -68 -53 -254 -164 -274 -164
-18 0 -18 1 2 50 9 23 14 44 10 47 -3 3 -29 -13 -58 -36 -29 -23 -88 -66 -130
-96 -43 -31 -117 -94 -165 -140 -92 -89 -119 -104 -158 -87 -20 9 -22 8 -18
-8 4 -13 -4 -23 -26 -34 -40 -21 -49 -20 -112 8 -88 38 -108 40 -44 3 33 -19
61 -41 63 -49 2 -8 -12 -22 -31 -33 -33 -17 -37 -17 -118 -1 -103 22 -261 33
-239 17 8 -6 30 -11 49 -11 18 0 61 -7 95 -15 123 -31 138 -46 90 -84 -23 -18
-41 -21 -128 -21 -83 -1 -208 -18 -221 -32 -2 -2 51 -2 118 0 153 4 171 -4
131 -60 -18 -24 -37 -39 -58 -43 -80 -15 -170 -39 -161 -42 6 -2 39 1 74 5 52
7 64 6 68 -6 10 -25 -27 -78 -70 -101 -24 -12 -32 -20 -19 -17 14 3 25 -1 29
-10 7 -20 -25 -103 -48 -122 -13 -11 -15 -19 -8 -28 7 -9 7 -32 -2 -74 -9 -48
-18 -66 -43 -86 -25 -20 -27 -24 -9 -19 12 3 24 1 27 -4 12 -18 -13 -95 -35
-111 -19 -15 -19 -18 -5 -23 13 -5 15 -15 10 -49 -4 -24 -11 -49 -17 -56 -7
-9 -7 -16 1 -24 15 -15 16 -75 2 -83 -6 -4 -4 -12 5 -21 9 -9 15 -33 15 -57 0
-23 2 -82 5 -132 4 -49 6 -99 7 -110 1 -56 40 -226 64 -282 8 -17 14 -40 14
-51 0 -12 5 -24 10 -27 6 -3 10 -15 10 -25 0 -10 16 -49 35 -87 57 -107 37
-133 -98 -133 -40 0 -90 -5 -112 -11 -167 -47 -309 36 -289 168 9 58 72 162
118 192 20 13 34 26 33 28 -2 2 -70 -10 -151 -25 -212 -42 -288 -25 -334 72
-36 74 -25 133 39 229 38 56 62 81 99 101 27 15 52 31 55 36 6 9 -61 3 -115
-11 -19 -5 -62 -9 -95 -9 -33 0 -98 -5 -145 -11 -46 -5 -94 -8 -105 -5 -28 7
-103 109 -110 150 -10 52 21 140 74 209 37 49 60 69 111 94 l65 32 -40 0 c-23
1 -65 -5 -95 -13 -87 -21 -162 -27 -226 -15 -87 15 -87 15 -114 64 -14 25 -27
45 -30 45 -3 0 -29 27 -58 60 l-53 60 16 58 c9 31 25 66 34 77 10 11 21 28 24
37 7 19 64 57 117 78 19 7 40 17 45 22 16 16 -104 -2 -163 -23 -29 -10 -67
-19 -84 -19 -18 0 -58 -7 -90 -16 l-58 -17 -48 45 c-26 24 -84 70 -130 102
-45 32 -87 66 -92 77 -8 13 -5 34 10 76 11 31 20 58 20 59 0 1 25 19 56 39 30
20 53 39 51 42 -3 2 -22 0 -44 -6 -87 -24 -86 -28 -23 122 57 135 78 226 95
407 8 86 22 194 30 240 20 108 29 311 18 415 -9 86 13 279 43 385 41 143 167
336 318 485 130 130 218 195 481 355 248 152 577 290 820 345 91 21 459 30
655 17 80 -5 147 -8 148 -7 15 14 -42 80 -252 289 -260 260 -293 304 -303 401
-8 80 11 137 70 201 58 64 137 110 278 164 209 78 395 97 669 66 69 -8 171
-17 228 -21 95 -6 102 -5 102 12 -1 17 -18 31 -225 173 -69 48 -307 190 -318
190 -11 0 -286 155 -337 190 -76 52 -200 186 -240 261 -98 184 -135 437 -90
615 28 109 65 179 131 245 71 72 133 112 295 193 72 36 137 73 145 82 36 44
-78 55 -291 29z m-8094 -1781 c58 -45 37 -91 -25 -53 -35 21 -46 41 -37 64 8
21 22 19 62 -11z m1821 -2152 c14 -9 63 -115 63 -137 0 -8 -11 -31 -25 -51
-14 -21 -28 -54 -31 -76 -9 -56 -30 -48 -38 15 -8 67 -8 221 0 241 7 18 13 19
31 8z m-2096 -992 c27 -36 23 -51 -23 -89 -35 -29 -49 -35 -97 -36 -31 -1 -71
-5 -88 -9 -29 -7 -34 -5 -43 19 -14 37 -12 101 3 114 23 19 89 30 160 28 60
-2 71 -6 88 -27z m-493 -1863 c4 -31 -8 -35 -31 -9 -13 14 -14 21 -5 30 18 18
33 9 36 -21z m8384 -1149 c14 -7 36 -28 49 -47 13 -20 52 -66 87 -102 46 -49
59 -70 50 -75 -28 -18 -115 -46 -155 -51 -89 -10 -193 60 -193 131 0 58 78
155 126 156 5 0 22 -5 36 -12z m-3640 -123 c0 -5 -5 -11 -11 -13 -6 -2 -11 4
-11 13 0 9 5 15 11 13 6 -2 11 -8 11 -13z m3951 -176 c37 -27 65 -54 62 -59
-8 -13 -106 -13 -139 0 -36 13 -48 41 -35 79 6 18 18 31 27 31 10 -1 48 -23
85 -51z m-4618 5 c15 -20 56 -107 91 -193 89 -217 88 -221 -60 -401 -90 -109
-177 -200 -192 -200 -7 0 -18 17 -24 38 -13 40 -66 134 -124 221 -20 29 -36
62 -36 74 0 21 46 107 64 119 6 4 31 -10 55 -30 l46 -37 -33 57 c-17 32 -32
62 -32 68 0 15 82 143 97 153 7 4 13 15 13 24 0 23 80 143 95 143 7 0 25 -16
40 -36z m-3755 17 c0 -23 -122 -82 -137 -67 -15 15 18 54 54 64 50 13 83 14
83 3z m3384 -621 c33 -20 97 -91 153 -169 37 -52 37 -54 -41 -131 -38 -37 -59
-51 -66 -44 -22 22 -130 260 -130 286 0 31 26 78 42 78 6 0 25 -9 42 -20z
m-165 -285 c39 -33 101 -118 101 -138 0 -16 -75 -74 -100 -77 -52 -8 -59 -1
-80 69 -24 82 -25 114 -4 146 21 32 45 32 83 0z m-185 -187 c9 -12 16 -28 16
-35 0 -15 -51 -43 -80 -43 -24 0 -25 18 -6 65 18 41 47 46 70 13z m1501 -748
c8 -13 -31 -50 -54 -50 -10 0 -33 -3 -50 -6 -24 -5 -31 -3 -31 9 0 27 32 42
122 56 4 1 9 -3 13 -9z"/>
</g>
</svg>
